<svg xmlns="http://www.w3.org/2000/svg" shape-rendering="geometricPrecision" text-rendering="geometricPrecision" image-rendering="optimizeQuality" fill-rule="evenodd" clip-rule="evenodd" viewBox="0 0 512 502.88"><path fill-rule="nonzero" d="M175.52 1.44c24.21 0 45.61 14.24 60.61 37.23 8.91 13.66 15.6 30.59 19.15 49.38 3.47-19.37 10.27-36.81 19.41-50.82 15-23 36.41-37.23 60.62-37.23 24.22 0 45.62 14.24 60.62 37.23 13.59 20.84 22.01 49.26 22.01 80.31 0 18.76-3.07 36.55-8.5 52.29 1.59-1.28 3.18-2.49 4.8-3.63 18.64-13.19 39.58-17.75 58.55-10.63l1.71.67c18.74 7.79 30.93 25.47 35.5 47.83 4.13 20.2 1.97 44.62-7.45 68.43-9.42 23.82-24.57 43.11-41.43 55.04-18.63 13.19-39.58 17.74-58.54 10.61l-1.68-.66a52.568 52.568 0 01-12.99-7.74l8.28 13.52c8.85 14.56 17.76 29.2 27.35 42.09.58.78 1.08 1.58 1.5 2.41 8.67 16.95 12.74 32.91 12.86 47.25.14 16.81-5.11 31.25-14.8 42.59-9.42 11.02-22.83 18.75-39.32 22.48-16.81 3.81-36.95 3.46-59.25-1.85-1.54-.37-2.98-.93-4.3-1.65-15.22-7.74-27.01-12.94-37.26-15.98-9.77-2.89-18.51-3.96-28.09-3.63-14.95.52-26.36 5.74-37.93 11.04-17.22 7.88-34.78 15.91-63.79 14.74l-.38-.02c-20.46-.64-36-5.41-47.36-13.43-13.78-9.71-21.13-23.46-23.39-40.03-4-29.08 5.85-46.4 18.28-68.25l1.18-2.07c22.83-40.27 47.35-76.49 73.25-101.69 27.94-27.19 57.83-42.01 89.56-36.88 49.45.41 79.36 26.14 103.8 59.5-1.1-3.27-2.01-6.69-2.73-10.21-4.01-19.68-2.08-43.36 6.73-66.59-11.01 7.69-23.47 11.99-36.79 11.99-24.21 0-45.62-14.23-60.62-37.23-8.91-13.66-15.6-30.58-19.15-49.37-3.47 19.36-10.26 36.8-19.41 50.81-15 22.99-36.4 37.23-60.61 37.23-12.41 0-24.09-3.74-34.54-10.48 7.88 22.28 9.49 44.79 5.65 63.64-4.64 22.69-17.12 40.54-36.33 48.14-19.21 7.59-40.51 3.11-59.43-10.28-16.67-11.81-31.68-30.81-41.12-54.25l-.62-1.59C-.01 248.14-2.08 224.04 2 204.07c4.63-22.7 17.12-40.57 36.34-48.16 19.19-7.59 40.5-3.1 59.42 10.29l2.56 1.88c-4.76-14.94-7.43-31.6-7.43-49.1 0-31.05 8.41-59.48 22-80.31 15.01-23 36.41-37.23 60.63-37.23z"/><path fill="#F29C34" d="M175.52 18.51c36.19 0 65.55 45 65.55 100.47 0 55.48-29.36 100.47-65.55 100.47-36.21 0-65.56-44.98-65.56-100.47 0-55.47 29.35-100.47 65.56-100.47zm234.35 376.98c32.25 63.32-9.64 103.25-81.41 86.14-32.56-16.59-51.21-22.46-74.18-21.65-39.81 1.39-54.12 27.65-100.45 25.78-35.74-.97-51.81-15.93-54.93-38.75-3.34-24.25 6-39.59 17.39-59.65 44.26-78.05 94.33-139.68 146.82-129.91 79.86 0 104.16 80.76 146.76 138.04zM44.61 171.77c-27.06 10.71-35.7 53.01-19.29 94.48 16.4 41.47 51.64 66.41 78.7 55.71 27.05-10.7 35.69-53.01 19.29-94.47-16.4-41.47-51.65-66.42-78.7-55.72zm422.78 0c27.05 10.71 35.69 53.01 19.29 94.48-16.4 41.47-51.65 66.41-78.7 55.71-27.06-10.7-35.7-53.01-19.29-94.47 16.4-41.47 51.65-66.42 78.7-55.72zM335.31 17.07c36.2 0 65.56 45 65.56 100.47 0 55.48-29.36 100.47-65.56 100.47s-65.55-44.99-65.55-100.47 29.35-100.47 65.55-100.47z"/><path fill="#E6822C" d="M167.88 218.77c-32.6-5.8-57.92-48.27-57.92-99.79 0-51.51 25.32-93.99 57.92-99.79 32.6 5.8 57.92 48.28 57.92 99.79 0 51.52-25.32 93.99-57.92 99.79zM398.87 395.5c25.83 50.71 4.1 86.41-42.46 89.83-7.45-.5-15.36-1.71-23.68-3.69-32.55-16.6-55.48-22.47-78.45-21.66-1.19.04-2.34.1-3.48.19-3.96-.27-7.88-.33-11.8-.19-36.2 1.27-47.78 23.11-84.44 25.64-33.27-1.84-48.37-16.56-51.39-38.61-3.34-24.25 6.01-39.59 17.39-59.65 38.95-68.68 79.09-124.64 123.94-130.43 96.62 12.68 98.87 63.94 154.37 138.57zM83 323.67c1.95-.4 3.87-.97 5.75-1.71 27.05-10.7 35.69-53.01 19.29-94.47-12.38-31.29-35.48-53.17-57.69-57.43-1.95.41-3.86.97-5.74 1.71-27.05 10.71-35.69 53.01-19.29 94.48C37.69 297.53 60.79 319.4 83 323.67zm369.12-151.9c27.05 10.71 35.69 53.01 19.29 94.48-12.37 31.28-35.47 53.15-57.68 57.42-1.95-.4-3.87-.97-5.75-1.71-27.06-10.7-35.7-53.01-19.29-94.47 12.38-31.29 35.48-53.17 57.69-57.43 1.94.41 3.86.97 5.74 1.71zM327.68 17.75c32.6 5.8 57.91 48.28 57.91 99.79 0 51.52-25.31 93.99-57.91 99.79-32.61-5.8-57.92-48.27-57.92-99.79s25.31-93.99 57.92-99.79z"/></svg>